<mxfile host="app.diagrams.net" agent="Mozilla/5.0 (Windows NT 10.0; Win64; x64) AppleWebKit/537.36 (KHTML, like Gecko) Chrome/127.0.0.0 Safari/537.36" version="24.7.6">
  <diagram id="R2lEEEUBdFMjLlhIrx00" name="Page-1">
    <mxGraphModel grid="1" page="1" gridSize="10" guides="1" tooltips="1" connect="1" arrows="1" fold="1" pageScale="1" pageWidth="850" pageHeight="1100" math="0" shadow="0" extFonts="Permanent Marker^https://fonts.googleapis.com/css?family=Permanent+Marker">
      <root>
        <mxCell id="0" />
        <mxCell id="1" parent="0" />
        <mxCell id="3okzUu0NLqD3jxvSw-oV-62" value="" style="endArrow=none;dashed=1;html=1;rounded=0;exitX=1;exitY=0.5;exitDx=0;exitDy=0;" edge="1" parent="1" source="3okzUu0NLqD3jxvSw-oV-3" target="3okzUu0NLqD3jxvSw-oV-12">
          <mxGeometry width="50" height="50" relative="1" as="geometry">
            <mxPoint x="540" y="380" as="sourcePoint" />
            <mxPoint x="590" y="330" as="targetPoint" />
          </mxGeometry>
        </mxCell>
        <mxCell id="3okzUu0NLqD3jxvSw-oV-59" value="&lt;font style=&quot;font-size: 17px;&quot;&gt;1:N&lt;/font&gt;" style="rhombus;whiteSpace=wrap;html=1;fontSize=17;" vertex="1" parent="1">
          <mxGeometry x="400" y="190" width="140" height="40" as="geometry" />
        </mxCell>
        <mxCell id="3okzUu0NLqD3jxvSw-oV-52" value="" style="endArrow=none;dashed=1;html=1;rounded=0;entryX=0;entryY=0.5;entryDx=0;entryDy=0;exitX=1;exitY=0.5;exitDx=0;exitDy=0;" edge="1" parent="1" source="3okzUu0NLqD3jxvSw-oV-11" target="3okzUu0NLqD3jxvSw-oV-13">
          <mxGeometry width="50" height="50" relative="1" as="geometry">
            <mxPoint x="365" y="600" as="sourcePoint" />
            <mxPoint x="367" y="350" as="targetPoint" />
          </mxGeometry>
        </mxCell>
        <mxCell id="3okzUu0NLqD3jxvSw-oV-51" value="&lt;font style=&quot;font-size: 17px;&quot;&gt;1:N&lt;/font&gt;" style="rhombus;whiteSpace=wrap;html=1;fontSize=17;" vertex="1" parent="1">
          <mxGeometry x="610" y="600" width="140" height="40" as="geometry" />
        </mxCell>
        <mxCell id="3okzUu0NLqD3jxvSw-oV-48" value="" style="endArrow=none;dashed=1;html=1;rounded=0;entryX=0.867;entryY=0;entryDx=0;entryDy=0;entryPerimeter=0;" edge="1" parent="1" source="3okzUu0NLqD3jxvSw-oV-11" target="3okzUu0NLqD3jxvSw-oV-47">
          <mxGeometry width="50" height="50" relative="1" as="geometry">
            <mxPoint x="360" y="520" as="sourcePoint" />
            <mxPoint x="360" y="270" as="targetPoint" />
          </mxGeometry>
        </mxCell>
        <mxCell id="3okzUu0NLqD3jxvSw-oV-2" value="Numero_Patente" style="ellipse;whiteSpace=wrap;html=1;fontSize=10;fillColor=#ffe6cc;strokeColor=#d79b00;" vertex="1" parent="1">
          <mxGeometry x="240" y="80" width="100" height="50" as="geometry" />
        </mxCell>
        <mxCell id="3okzUu0NLqD3jxvSw-oV-3" value="&lt;font style=&quot;font-size: 21px;&quot;&gt;Patente&lt;/font&gt;" style="rounded=1;whiteSpace=wrap;html=1;fontSize=21;" vertex="1" parent="1">
          <mxGeometry x="230" y="180" width="120" height="60" as="geometry" />
        </mxCell>
        <mxCell id="3okzUu0NLqD3jxvSw-oV-4" value="Nombre_Invento" style="ellipse;whiteSpace=wrap;html=1;fontSize=10;" vertex="1" parent="1">
          <mxGeometry x="100" y="100" width="100" height="50" as="geometry" />
        </mxCell>
        <mxCell id="3okzUu0NLqD3jxvSw-oV-5" value="Fecha_Obtencion_Patente" style="ellipse;whiteSpace=wrap;html=1;fontSize=10;" vertex="1" parent="1">
          <mxGeometry x="10" y="180" width="150" height="50" as="geometry" />
        </mxCell>
        <mxCell id="3okzUu0NLqD3jxvSw-oV-6" value="Fecha_Compra_Patente" style="ellipse;whiteSpace=wrap;html=1;fontSize=10;" vertex="1" parent="1">
          <mxGeometry x="75" y="270" width="150" height="50" as="geometry" />
        </mxCell>
        <mxCell id="3okzUu0NLqD3jxvSw-oV-7" value="" style="endArrow=none;html=1;rounded=0;exitX=0.5;exitY=0;exitDx=0;exitDy=0;" edge="1" parent="1" source="3okzUu0NLqD3jxvSw-oV-3" target="3okzUu0NLqD3jxvSw-oV-2">
          <mxGeometry width="50" height="50" relative="1" as="geometry">
            <mxPoint x="170" y="240" as="sourcePoint" />
            <mxPoint x="220" y="190" as="targetPoint" />
          </mxGeometry>
        </mxCell>
        <mxCell id="3okzUu0NLqD3jxvSw-oV-8" value="" style="endArrow=none;html=1;rounded=0;entryX=0.175;entryY=0;entryDx=0;entryDy=0;entryPerimeter=0;" edge="1" parent="1" source="3okzUu0NLqD3jxvSw-oV-4" target="3okzUu0NLqD3jxvSw-oV-3">
          <mxGeometry width="50" height="50" relative="1" as="geometry">
            <mxPoint x="170" y="240" as="sourcePoint" />
            <mxPoint x="220" y="190" as="targetPoint" />
          </mxGeometry>
        </mxCell>
        <mxCell id="3okzUu0NLqD3jxvSw-oV-9" value="" style="endArrow=none;html=1;rounded=0;exitX=1;exitY=0.5;exitDx=0;exitDy=0;entryX=0.017;entryY=0.367;entryDx=0;entryDy=0;entryPerimeter=0;" edge="1" parent="1" source="3okzUu0NLqD3jxvSw-oV-5" target="3okzUu0NLqD3jxvSw-oV-3">
          <mxGeometry width="50" height="50" relative="1" as="geometry">
            <mxPoint x="170" y="240" as="sourcePoint" />
            <mxPoint x="220" y="190" as="targetPoint" />
          </mxGeometry>
        </mxCell>
        <mxCell id="3okzUu0NLqD3jxvSw-oV-10" value="" style="endArrow=none;html=1;rounded=0;entryX=0;entryY=1;entryDx=0;entryDy=0;" edge="1" parent="1" source="3okzUu0NLqD3jxvSw-oV-6" target="3okzUu0NLqD3jxvSw-oV-3">
          <mxGeometry width="50" height="50" relative="1" as="geometry">
            <mxPoint x="170" y="240" as="sourcePoint" />
            <mxPoint x="220" y="190" as="targetPoint" />
            <Array as="points" />
          </mxGeometry>
        </mxCell>
        <mxCell id="3okzUu0NLqD3jxvSw-oV-11" value="Inventor" style="rounded=1;whiteSpace=wrap;html=1;fontSize=21;" vertex="1" parent="1">
          <mxGeometry x="235" y="590" width="120" height="60" as="geometry" />
        </mxCell>
        <mxCell id="3okzUu0NLqD3jxvSw-oV-12" value="Empresa" style="rounded=1;whiteSpace=wrap;html=1;fontSize=21;" vertex="1" parent="1">
          <mxGeometry x="980" y="220" width="120" height="60" as="geometry" />
        </mxCell>
        <mxCell id="3okzUu0NLqD3jxvSw-oV-13" value="Ayudante" style="rounded=1;whiteSpace=wrap;html=1;fontSize=21;" vertex="1" parent="1">
          <mxGeometry x="1000" y="590" width="120" height="60" as="geometry" />
        </mxCell>
        <mxCell id="3okzUu0NLqD3jxvSw-oV-14" value="Numero_Empresa" style="ellipse;whiteSpace=wrap;html=1;fontSize=10;fillColor=#ffe6cc;strokeColor=#d79b00;" vertex="1" parent="1">
          <mxGeometry x="990" y="120" width="100" height="50" as="geometry" />
        </mxCell>
        <mxCell id="3okzUu0NLqD3jxvSw-oV-15" value="Nombre&lt;span style=&quot;background-color: initial;&quot;&gt;_Empresa&lt;/span&gt;" style="ellipse;whiteSpace=wrap;html=1;fontSize=10;" vertex="1" parent="1">
          <mxGeometry x="1150" y="150" width="100" height="50" as="geometry" />
        </mxCell>
        <mxCell id="3okzUu0NLqD3jxvSw-oV-17" value="&lt;span style=&quot;background-color: initial;&quot;&gt;Direccion&lt;/span&gt;&lt;span style=&quot;background-color: initial;&quot;&gt;_Empresa&lt;/span&gt;" style="ellipse;whiteSpace=wrap;html=1;fontSize=10;" vertex="1" parent="1">
          <mxGeometry x="1150" y="250" width="100" height="50" as="geometry" />
        </mxCell>
        <mxCell id="3okzUu0NLqD3jxvSw-oV-18" value="&lt;span style=&quot;background-color: initial;&quot;&gt;Telefono_Empresa&lt;/span&gt;" style="ellipse;whiteSpace=wrap;html=1;fontSize=10;" vertex="1" parent="1">
          <mxGeometry x="1210" y="335" width="100" height="50" as="geometry" />
        </mxCell>
        <mxCell id="3okzUu0NLqD3jxvSw-oV-19" value="" style="endArrow=none;html=1;rounded=0;entryX=0.5;entryY=1;entryDx=0;entryDy=0;exitX=0.5;exitY=0;exitDx=0;exitDy=0;" edge="1" parent="1" source="3okzUu0NLqD3jxvSw-oV-12" target="3okzUu0NLqD3jxvSw-oV-14">
          <mxGeometry width="50" height="50" relative="1" as="geometry">
            <mxPoint x="850" y="390" as="sourcePoint" />
            <mxPoint x="900" y="340" as="targetPoint" />
          </mxGeometry>
        </mxCell>
        <mxCell id="3okzUu0NLqD3jxvSw-oV-20" value="" style="endArrow=none;html=1;rounded=0;entryX=0;entryY=0.5;entryDx=0;entryDy=0;exitX=0.925;exitY=0.017;exitDx=0;exitDy=0;exitPerimeter=0;" edge="1" parent="1" source="3okzUu0NLqD3jxvSw-oV-12" target="3okzUu0NLqD3jxvSw-oV-15">
          <mxGeometry width="50" height="50" relative="1" as="geometry">
            <mxPoint x="1050" y="230" as="sourcePoint" />
            <mxPoint x="1050" y="180" as="targetPoint" />
          </mxGeometry>
        </mxCell>
        <mxCell id="3okzUu0NLqD3jxvSw-oV-21" value="" style="endArrow=none;html=1;rounded=0;entryX=0.05;entryY=0.66;entryDx=0;entryDy=0;entryPerimeter=0;exitX=1;exitY=0.75;exitDx=0;exitDy=0;" edge="1" parent="1" source="3okzUu0NLqD3jxvSw-oV-12" target="3okzUu0NLqD3jxvSw-oV-17">
          <mxGeometry width="50" height="50" relative="1" as="geometry">
            <mxPoint x="1100" y="280" as="sourcePoint" />
            <mxPoint x="1060" y="190" as="targetPoint" />
          </mxGeometry>
        </mxCell>
        <mxCell id="3okzUu0NLqD3jxvSw-oV-22" value="" style="endArrow=none;html=1;rounded=0;entryX=0.5;entryY=0;entryDx=0;entryDy=0;exitX=0.5;exitY=1;exitDx=0;exitDy=0;" edge="1" parent="1" source="3okzUu0NLqD3jxvSw-oV-12" target="3okzUu0NLqD3jxvSw-oV-18">
          <mxGeometry width="50" height="50" relative="1" as="geometry">
            <mxPoint x="1110" y="275" as="sourcePoint" />
            <mxPoint x="1165" y="293" as="targetPoint" />
            <Array as="points">
              <mxPoint x="1130" y="300" />
            </Array>
          </mxGeometry>
        </mxCell>
        <mxCell id="3okzUu0NLqD3jxvSw-oV-23" value="DNI_Inventor" style="ellipse;whiteSpace=wrap;html=1;fontSize=10;fillColor=#ffe6cc;strokeColor=#d79b00;" vertex="1" parent="1">
          <mxGeometry x="95" y="510" width="100" height="50" as="geometry" />
        </mxCell>
        <mxCell id="3okzUu0NLqD3jxvSw-oV-24" value="Nombre_Inventor" style="ellipse;whiteSpace=wrap;html=1;fontSize=10;" vertex="1" parent="1">
          <mxGeometry x="40" y="610" width="100" height="50" as="geometry" />
        </mxCell>
        <mxCell id="3okzUu0NLqD3jxvSw-oV-25" value="Direccion_Inventor" style="ellipse;whiteSpace=wrap;html=1;fontSize=10;" vertex="1" parent="1">
          <mxGeometry x="105" y="710" width="100" height="50" as="geometry" />
        </mxCell>
        <mxCell id="3okzUu0NLqD3jxvSw-oV-26" value="Telefono_Inventor" style="ellipse;whiteSpace=wrap;html=1;fontSize=10;" vertex="1" parent="1">
          <mxGeometry x="245" y="740" width="100" height="50" as="geometry" />
        </mxCell>
        <mxCell id="3okzUu0NLqD3jxvSw-oV-27" value="" style="endArrow=none;html=1;rounded=0;exitX=0;exitY=0;exitDx=0;exitDy=0;" edge="1" parent="1" source="3okzUu0NLqD3jxvSw-oV-11" target="3okzUu0NLqD3jxvSw-oV-23">
          <mxGeometry width="50" height="50" relative="1" as="geometry">
            <mxPoint x="245" y="600" as="sourcePoint" />
            <mxPoint x="525" y="600" as="targetPoint" />
          </mxGeometry>
        </mxCell>
        <mxCell id="3okzUu0NLqD3jxvSw-oV-28" value="" style="endArrow=none;html=1;rounded=0;exitX=1;exitY=0.5;exitDx=0;exitDy=0;entryX=0;entryY=0.5;entryDx=0;entryDy=0;" edge="1" parent="1" source="3okzUu0NLqD3jxvSw-oV-24" target="3okzUu0NLqD3jxvSw-oV-11">
          <mxGeometry width="50" height="50" relative="1" as="geometry">
            <mxPoint x="475" y="650" as="sourcePoint" />
            <mxPoint x="525" y="600" as="targetPoint" />
          </mxGeometry>
        </mxCell>
        <mxCell id="3okzUu0NLqD3jxvSw-oV-29" value="" style="endArrow=none;html=1;rounded=0;entryX=0.017;entryY=0.9;entryDx=0;entryDy=0;entryPerimeter=0;exitX=0.7;exitY=0.02;exitDx=0;exitDy=0;exitPerimeter=0;" edge="1" parent="1" source="3okzUu0NLqD3jxvSw-oV-25" target="3okzUu0NLqD3jxvSw-oV-11">
          <mxGeometry width="50" height="50" relative="1" as="geometry">
            <mxPoint x="475" y="650" as="sourcePoint" />
            <mxPoint x="525" y="600" as="targetPoint" />
          </mxGeometry>
        </mxCell>
        <mxCell id="3okzUu0NLqD3jxvSw-oV-30" value="" style="endArrow=none;html=1;rounded=0;exitX=0.5;exitY=0;exitDx=0;exitDy=0;" edge="1" parent="1" source="3okzUu0NLqD3jxvSw-oV-26" target="3okzUu0NLqD3jxvSw-oV-11">
          <mxGeometry width="50" height="50" relative="1" as="geometry">
            <mxPoint x="475" y="650" as="sourcePoint" />
            <mxPoint x="525" y="600" as="targetPoint" />
          </mxGeometry>
        </mxCell>
        <mxCell id="3okzUu0NLqD3jxvSw-oV-31" value="DNI_Ayudante" style="ellipse;whiteSpace=wrap;html=1;fontSize=10;fillColor=#ffe6cc;strokeColor=#d79b00;" vertex="1" parent="1">
          <mxGeometry x="1170" y="510" width="100" height="50" as="geometry" />
        </mxCell>
        <mxCell id="3okzUu0NLqD3jxvSw-oV-33" value="Nombre_Ayudante" style="ellipse;whiteSpace=wrap;html=1;fontSize=10;" vertex="1" parent="1">
          <mxGeometry x="1210" y="610" width="100" height="50" as="geometry" />
        </mxCell>
        <mxCell id="3okzUu0NLqD3jxvSw-oV-34" value="Direccion_Ayudante" style="ellipse;whiteSpace=wrap;html=1;fontSize=10;" vertex="1" parent="1">
          <mxGeometry x="1150" y="700" width="100" height="50" as="geometry" />
        </mxCell>
        <mxCell id="3okzUu0NLqD3jxvSw-oV-35" value="Telefono_Ayudante" style="ellipse;whiteSpace=wrap;html=1;fontSize=10;" vertex="1" parent="1">
          <mxGeometry x="1010" y="730" width="100" height="50" as="geometry" />
        </mxCell>
        <mxCell id="3okzUu0NLqD3jxvSw-oV-36" value="" style="endArrow=none;html=1;rounded=0;" edge="1" parent="1" source="3okzUu0NLqD3jxvSw-oV-13" target="3okzUu0NLqD3jxvSw-oV-31">
          <mxGeometry width="50" height="50" relative="1" as="geometry">
            <mxPoint x="860" y="650" as="sourcePoint" />
            <mxPoint x="910" y="600" as="targetPoint" />
          </mxGeometry>
        </mxCell>
        <mxCell id="3okzUu0NLqD3jxvSw-oV-37" value="" style="endArrow=none;html=1;rounded=0;entryX=0;entryY=0.5;entryDx=0;entryDy=0;exitX=1;exitY=0.5;exitDx=0;exitDy=0;" edge="1" parent="1" source="3okzUu0NLqD3jxvSw-oV-13" target="3okzUu0NLqD3jxvSw-oV-33">
          <mxGeometry width="50" height="50" relative="1" as="geometry">
            <mxPoint x="1126" y="600" as="sourcePoint" />
            <mxPoint x="1196" y="563" as="targetPoint" />
          </mxGeometry>
        </mxCell>
        <mxCell id="3okzUu0NLqD3jxvSw-oV-38" value="" style="endArrow=none;html=1;rounded=0;entryX=0.36;entryY=0.06;entryDx=0;entryDy=0;entryPerimeter=0;" edge="1" parent="1" source="3okzUu0NLqD3jxvSw-oV-13" target="3okzUu0NLqD3jxvSw-oV-34">
          <mxGeometry width="50" height="50" relative="1" as="geometry">
            <mxPoint x="1130" y="630" as="sourcePoint" />
            <mxPoint x="1218" y="639" as="targetPoint" />
          </mxGeometry>
        </mxCell>
        <mxCell id="3okzUu0NLqD3jxvSw-oV-39" value="" style="endArrow=none;html=1;rounded=0;entryX=0.5;entryY=0;entryDx=0;entryDy=0;exitX=0.5;exitY=1;exitDx=0;exitDy=0;" edge="1" parent="1" source="3okzUu0NLqD3jxvSw-oV-13" target="3okzUu0NLqD3jxvSw-oV-35">
          <mxGeometry width="50" height="50" relative="1" as="geometry">
            <mxPoint x="1116" y="660" as="sourcePoint" />
            <mxPoint x="1196" y="713" as="targetPoint" />
          </mxGeometry>
        </mxCell>
        <mxCell id="3okzUu0NLqD3jxvSw-oV-43" value="N" style="text;html=1;align=center;verticalAlign=middle;whiteSpace=wrap;rounded=0;fontSize=19;" vertex="1" parent="1">
          <mxGeometry x="280" y="240" width="60" height="30" as="geometry" />
        </mxCell>
        <mxCell id="3okzUu0NLqD3jxvSw-oV-44" value="1" style="text;html=1;align=center;verticalAlign=middle;whiteSpace=wrap;rounded=0;fontSize=19;" vertex="1" parent="1">
          <mxGeometry x="245" y="560" width="60" height="30" as="geometry" />
        </mxCell>
        <mxCell id="3okzUu0NLqD3jxvSw-oV-45" value="" style="endArrow=none;dashed=1;html=1;rounded=0;" edge="1" parent="1" source="3okzUu0NLqD3jxvSw-oV-47" target="3okzUu0NLqD3jxvSw-oV-3">
          <mxGeometry width="50" height="50" relative="1" as="geometry">
            <mxPoint x="290" y="490" as="sourcePoint" />
            <mxPoint x="300" y="310" as="targetPoint" />
          </mxGeometry>
        </mxCell>
        <mxCell id="3okzUu0NLqD3jxvSw-oV-46" value="1" style="text;html=1;align=center;verticalAlign=middle;whiteSpace=wrap;rounded=0;fontSize=19;" vertex="1" parent="1">
          <mxGeometry x="285" y="560" width="60" height="30" as="geometry" />
        </mxCell>
        <mxCell id="3okzUu0NLqD3jxvSw-oV-47" value="1" style="text;html=1;align=center;verticalAlign=middle;whiteSpace=wrap;rounded=0;fontSize=19;" vertex="1" parent="1">
          <mxGeometry x="240" y="240" width="60" height="30" as="geometry" />
        </mxCell>
        <mxCell id="3okzUu0NLqD3jxvSw-oV-40" value="&lt;font style=&quot;font-size: 17px;&quot;&gt;1:N&lt;/font&gt;" style="rhombus;whiteSpace=wrap;html=1;fontSize=17;" vertex="1" parent="1">
          <mxGeometry x="220" y="340" width="140" height="40" as="geometry" />
        </mxCell>
        <mxCell id="3okzUu0NLqD3jxvSw-oV-54" value="N" style="text;html=1;align=center;verticalAlign=middle;whiteSpace=wrap;rounded=0;fontSize=19;" vertex="1" parent="1">
          <mxGeometry x="950" y="590" width="60" height="30" as="geometry" />
        </mxCell>
        <mxCell id="3okzUu0NLqD3jxvSw-oV-55" value="1" style="text;html=1;align=center;verticalAlign=middle;whiteSpace=wrap;rounded=0;fontSize=19;" vertex="1" parent="1">
          <mxGeometry x="400" y="620" width="60" height="30" as="geometry" />
        </mxCell>
        <mxCell id="3okzUu0NLqD3jxvSw-oV-56" value="1" style="text;html=1;align=center;verticalAlign=middle;whiteSpace=wrap;rounded=0;fontSize=19;" vertex="1" parent="1">
          <mxGeometry x="950" y="620" width="60" height="30" as="geometry" />
        </mxCell>
        <mxCell id="3okzUu0NLqD3jxvSw-oV-57" value="1" style="text;html=1;align=center;verticalAlign=middle;whiteSpace=wrap;rounded=0;fontSize=19;" vertex="1" parent="1">
          <mxGeometry x="400" y="590" width="60" height="30" as="geometry" />
        </mxCell>
        <mxCell id="3okzUu0NLqD3jxvSw-oV-66" value="1" style="text;html=1;align=center;verticalAlign=middle;whiteSpace=wrap;rounded=0;fontSize=19;" vertex="1" parent="1">
          <mxGeometry x="880" y="220" width="60" height="30" as="geometry" />
        </mxCell>
        <mxCell id="3okzUu0NLqD3jxvSw-oV-67" value="N" style="text;html=1;align=center;verticalAlign=middle;whiteSpace=wrap;rounded=0;fontSize=19;" vertex="1" parent="1">
          <mxGeometry x="350" y="210" width="60" height="30" as="geometry" />
        </mxCell>
        <mxCell id="3okzUu0NLqD3jxvSw-oV-68" value="1" style="text;html=1;align=center;verticalAlign=middle;whiteSpace=wrap;rounded=0;fontSize=19;" vertex="1" parent="1">
          <mxGeometry x="350" y="180" width="60" height="30" as="geometry" />
        </mxCell>
        <mxCell id="3okzUu0NLqD3jxvSw-oV-69" value="1" style="text;html=1;align=center;verticalAlign=middle;whiteSpace=wrap;rounded=0;fontSize=19;" vertex="1" parent="1">
          <mxGeometry x="880" y="250" width="60" height="30" as="geometry" />
        </mxCell>
        <mxCell id="3okzUu0NLqD3jxvSw-oV-72" value="1" style="text;html=1;align=center;verticalAlign=middle;whiteSpace=wrap;rounded=0;fontSize=19;" vertex="1" parent="1">
          <mxGeometry x="920" y="250" width="60" height="30" as="geometry" />
        </mxCell>
        <mxCell id="3okzUu0NLqD3jxvSw-oV-73" value="N" style="text;html=1;align=center;verticalAlign=middle;whiteSpace=wrap;rounded=0;fontSize=19;" vertex="1" parent="1">
          <mxGeometry x="940" y="280" width="60" height="30" as="geometry" />
        </mxCell>
        <mxCell id="3okzUu0NLqD3jxvSw-oV-75" value="" style="endArrow=none;dashed=1;html=1;rounded=0;exitX=1;exitY=0.25;exitDx=0;exitDy=0;entryX=1;entryY=0.75;entryDx=0;entryDy=0;" edge="1" parent="1" source="3okzUu0NLqD3jxvSw-oV-11" target="3okzUu0NLqD3jxvSw-oV-72">
          <mxGeometry width="50" height="50" relative="1" as="geometry">
            <mxPoint x="415" y="605" as="sourcePoint" />
            <mxPoint x="659.9999999999998" y="442.5" as="targetPoint" />
          </mxGeometry>
        </mxCell>
        <mxCell id="3okzUu0NLqD3jxvSw-oV-77" value="1" style="text;html=1;align=center;verticalAlign=middle;whiteSpace=wrap;rounded=0;fontSize=19;" vertex="1" parent="1">
          <mxGeometry x="400" y="530" width="60" height="30" as="geometry" />
        </mxCell>
        <mxCell id="3okzUu0NLqD3jxvSw-oV-78" value="N" style="text;html=1;align=center;verticalAlign=middle;whiteSpace=wrap;rounded=0;fontSize=19;" vertex="1" parent="1">
          <mxGeometry x="440" y="550" width="60" height="30" as="geometry" />
        </mxCell>
        <mxCell id="3okzUu0NLqD3jxvSw-oV-79" value="&lt;font style=&quot;font-size: 17px;&quot;&gt;N:M&lt;/font&gt;" style="rhombus;whiteSpace=wrap;html=1;fontSize=17;" vertex="1" parent="1">
          <mxGeometry x="580" y="430" width="140" height="40" as="geometry" />
        </mxCell>
        <mxCell id="3okzUu0NLqD3jxvSw-oV-81" value="" style="endArrow=none;dashed=1;html=1;rounded=0;entryX=0.5;entryY=1;entryDx=0;entryDy=0;" edge="1" parent="1" target="3okzUu0NLqD3jxvSw-oV-12">
          <mxGeometry width="50" height="50" relative="1" as="geometry">
            <mxPoint x="1040" y="580" as="sourcePoint" />
            <mxPoint x="1020" y="290" as="targetPoint" />
          </mxGeometry>
        </mxCell>
        <mxCell id="3okzUu0NLqD3jxvSw-oV-82" value="&lt;font style=&quot;font-size: 17px;&quot;&gt;N:M&lt;/font&gt;" style="rhombus;whiteSpace=wrap;html=1;fontSize=17;" vertex="1" parent="1">
          <mxGeometry x="970" y="420" width="140" height="40" as="geometry" />
        </mxCell>
        <mxCell id="3okzUu0NLqD3jxvSw-oV-83" value="1" style="text;html=1;align=center;verticalAlign=middle;whiteSpace=wrap;rounded=0;fontSize=19;" vertex="1" parent="1">
          <mxGeometry x="990" y="280" width="60" height="30" as="geometry" />
        </mxCell>
        <mxCell id="3okzUu0NLqD3jxvSw-oV-84" value="N" style="text;html=1;align=center;verticalAlign=middle;whiteSpace=wrap;rounded=0;fontSize=19;" vertex="1" parent="1">
          <mxGeometry x="1040" y="560" width="60" height="30" as="geometry" />
        </mxCell>
        <mxCell id="3okzUu0NLqD3jxvSw-oV-85" value="N" style="text;html=1;align=center;verticalAlign=middle;whiteSpace=wrap;rounded=0;fontSize=19;" vertex="1" parent="1">
          <mxGeometry x="1030" y="280" width="60" height="30" as="geometry" />
        </mxCell>
        <mxCell id="3okzUu0NLqD3jxvSw-oV-86" value="1" style="text;html=1;align=center;verticalAlign=middle;whiteSpace=wrap;rounded=0;fontSize=19;" vertex="1" parent="1">
          <mxGeometry x="990" y="560" width="60" height="30" as="geometry" />
        </mxCell>
        <mxCell id="3okzUu0NLqD3jxvSw-oV-87" value="Empresa_Inventor" style="rounded=1;whiteSpace=wrap;html=1;fontSize=15;" vertex="1" parent="1">
          <mxGeometry x="770" y="420" width="130" height="60" as="geometry" />
        </mxCell>
        <mxCell id="3okzUu0NLqD3jxvSw-oV-88" value="" style="endArrow=classic;html=1;rounded=0;exitX=1;exitY=0.5;exitDx=0;exitDy=0;entryX=0;entryY=0.5;entryDx=0;entryDy=0;" edge="1" parent="1" source="3okzUu0NLqD3jxvSw-oV-79" target="3okzUu0NLqD3jxvSw-oV-87">
          <mxGeometry width="50" height="50" relative="1" as="geometry">
            <mxPoint x="970" y="450" as="sourcePoint" />
            <mxPoint x="1020" y="400" as="targetPoint" />
          </mxGeometry>
        </mxCell>
        <mxCell id="3okzUu0NLqD3jxvSw-oV-89" value="Empresa_Ayudante" style="rounded=1;whiteSpace=wrap;html=1;fontSize=15;" vertex="1" parent="1">
          <mxGeometry x="1190" y="400" width="130" height="60" as="geometry" />
        </mxCell>
        <mxCell id="3okzUu0NLqD3jxvSw-oV-90" value="" style="endArrow=classic;html=1;rounded=0;exitX=1;exitY=0.5;exitDx=0;exitDy=0;" edge="1" parent="1" source="3okzUu0NLqD3jxvSw-oV-82" target="3okzUu0NLqD3jxvSw-oV-89">
          <mxGeometry width="50" height="50" relative="1" as="geometry">
            <mxPoint x="1130" y="450" as="sourcePoint" />
            <mxPoint x="1180" y="400" as="targetPoint" />
          </mxGeometry>
        </mxCell>
        <mxCell id="3okzUu0NLqD3jxvSw-oV-91" value="Numero_Empresa_FK" style="ellipse;whiteSpace=wrap;html=1;fontSize=10;fillColor=#ffe6cc;strokeColor=#d79b00;" vertex="1" parent="1">
          <mxGeometry x="1390" y="350" width="100" height="50" as="geometry" />
        </mxCell>
        <mxCell id="3okzUu0NLqD3jxvSw-oV-92" value="DNI_Ayudante_FK" style="ellipse;whiteSpace=wrap;html=1;fontSize=10;fillColor=#ffe6cc;strokeColor=#d79b00;" vertex="1" parent="1">
          <mxGeometry x="1390" y="460" width="100" height="50" as="geometry" />
        </mxCell>
        <mxCell id="3okzUu0NLqD3jxvSw-oV-93" value="" style="endArrow=none;html=1;rounded=0;entryX=0;entryY=1;entryDx=0;entryDy=0;" edge="1" parent="1" target="3okzUu0NLqD3jxvSw-oV-91">
          <mxGeometry width="50" height="50" relative="1" as="geometry">
            <mxPoint x="1320" y="440" as="sourcePoint" />
            <mxPoint x="1300" y="430" as="targetPoint" />
          </mxGeometry>
        </mxCell>
        <mxCell id="3okzUu0NLqD3jxvSw-oV-94" value="" style="endArrow=none;html=1;rounded=0;" edge="1" parent="1" source="3okzUu0NLqD3jxvSw-oV-89" target="3okzUu0NLqD3jxvSw-oV-92">
          <mxGeometry width="50" height="50" relative="1" as="geometry">
            <mxPoint x="1250" y="480" as="sourcePoint" />
            <mxPoint x="1300" y="430" as="targetPoint" />
          </mxGeometry>
        </mxCell>
        <mxCell id="3okzUu0NLqD3jxvSw-oV-95" value="Numero_Empresa_FK" style="ellipse;whiteSpace=wrap;html=1;fontSize=10;fillColor=#ffe6cc;strokeColor=#d79b00;" vertex="1" parent="1">
          <mxGeometry x="860" y="500" width="100" height="50" as="geometry" />
        </mxCell>
        <mxCell id="3okzUu0NLqD3jxvSw-oV-96" value="DNI_Inventor_FK" style="ellipse;whiteSpace=wrap;html=1;fontSize=10;fillColor=#ffe6cc;strokeColor=#d79b00;" vertex="1" parent="1">
          <mxGeometry x="700" y="500" width="100" height="50" as="geometry" />
        </mxCell>
        <mxCell id="3okzUu0NLqD3jxvSw-oV-97" value="" style="endArrow=none;html=1;rounded=0;entryX=0.5;entryY=1;entryDx=0;entryDy=0;" edge="1" parent="1" source="3okzUu0NLqD3jxvSw-oV-96" target="3okzUu0NLqD3jxvSw-oV-87">
          <mxGeometry width="50" height="50" relative="1" as="geometry">
            <mxPoint x="920" y="420" as="sourcePoint" />
            <mxPoint x="970" y="370" as="targetPoint" />
          </mxGeometry>
        </mxCell>
        <mxCell id="3okzUu0NLqD3jxvSw-oV-98" value="" style="endArrow=none;html=1;rounded=0;entryX=0.5;entryY=1;entryDx=0;entryDy=0;" edge="1" parent="1" source="3okzUu0NLqD3jxvSw-oV-95" target="3okzUu0NLqD3jxvSw-oV-87">
          <mxGeometry width="50" height="50" relative="1" as="geometry">
            <mxPoint x="794" y="517" as="sourcePoint" />
            <mxPoint x="845" y="490" as="targetPoint" />
          </mxGeometry>
        </mxCell>
      </root>
    </mxGraphModel>
  </diagram>
</mxfile>
